<svg width="14" height="14" viewBox="0 0 14 14" fill="none" xmlns="http://www.w3.org/2000/svg">
<path fill-rule="evenodd" clip-rule="evenodd" d="M7.4419 8.07863C7.79021 7.32192 7.46919 6.69845 6.58245 6.31229L5.11335 5.70569C4.6374 5.50919 4.09205 5.59017 3.69364 5.91651L2.34258 7.02317L2.30328 7.4172L2.23999 10.6399V11.1999H3.87463L7.20841 12.1471C7.62897 12.2666 8.08117 12.1825 8.43074 11.9197C10.6274 10.2686 12.0951 9.15375 12.3173 8.94708C12.8562 8.44606 13.0683 7.88901 12.6844 7.33989C12.374 6.89604 11.8507 6.84869 11.202 7.14237L8.04706 8.74693L7.15993 8.46482C7.27431 8.36619 7.36864 8.23777 7.4419 8.07863Z" fill="#1565D8"/>
<path opacity="0.3" fill-rule="evenodd" clip-rule="evenodd" d="M10.4737 2.24055H9.79999V2.10024C9.79999 1.86814 9.61199 1.67993 9.37999 1.67993C9.148 1.67993 8.95999 1.86814 8.95999 2.10024V2.24055H8.8278C8.28653 2.24055 7.8478 2.67975 7.8478 3.22147V3.5022C7.8478 4.04391 8.28653 4.48312 8.8278 4.48312H9.94C10.0173 4.48312 10.08 4.5459 10.08 4.62342V4.90331C10.08 4.98083 10.0173 5.04361 9.94 5.04361H8.65492C8.59274 4.89616 8.44902 4.79197 8.28058 4.78684C8.04869 4.77978 7.85505 4.96219 7.848 5.19418L7.84019 5.45115C7.83299 5.68814 8.023 5.88423 8.26 5.88423H8.95999V6.01962C8.95999 6.25172 9.148 6.43993 9.37999 6.43993C9.61199 6.43993 9.79999 6.25172 9.79999 6.01962V5.88423H9.94C10.4813 5.88423 10.92 5.44502 10.92 4.90331V4.62342C10.92 4.08171 10.4813 3.6425 9.94 3.6425H8.8278C8.75052 3.6425 8.6878 3.57972 8.6878 3.5022V3.22147C8.6878 3.14394 8.75052 3.08116 8.8278 3.08116H10.1087C10.1817 3.20928 10.3193 3.29337 10.4737 3.29337C10.7057 3.29337 10.8937 3.10516 10.8937 2.87307V2.66085C10.8937 2.42876 10.7057 2.24055 10.4737 2.24055ZM1.95999 6.29993H2.09999V11.6199H1.95999C1.72803 11.6199 1.53999 11.808 1.53999 12.0399C1.53999 12.2719 1.72803 12.4599 1.95999 12.4599H2.51999C2.75195 12.4599 2.93999 12.2719 2.93999 12.0399V5.87993C2.93999 5.64797 2.75195 5.45993 2.51999 5.45993H1.95999C1.72803 5.45993 1.53999 5.64797 1.53999 5.87993C1.53999 6.11189 1.72803 6.29993 1.95999 6.29993Z" fill="#1565D8"/>
</svg>
