<svg width="15" height="14" viewBox="0 0 15 14" fill="none" xmlns="http://www.w3.org/2000/svg">
<path fill-rule="evenodd" clip-rule="evenodd" d="M4.64647 5.49575C5.35176 4.4499 5.792 3.24981 5.96861 1.89119C5.98544 1.76177 6.07323 1.65415 6.19374 1.61524C7.40833 1.22301 8.09886 1.84628 8.08745 3.26748C8.08524 3.54335 8.07304 3.78855 8.04707 4.16358C7.98905 5.00126 7.99366 5.22986 8.08354 5.38368C8.16995 5.53155 8.45042 5.58203 9.11378 5.45061C9.3231 5.40914 9.53308 5.36213 9.76566 5.30568C9.86833 5.28076 10.6078 5.09247 10.7968 5.04988C11.1574 4.96863 11.4162 4.93425 11.6437 4.94881C12.26 4.98826 12.587 5.40233 12.6436 6.19565C12.7431 7.59275 12.4356 10.399 12.1288 11.4326C11.8153 12.4889 11.2685 12.8876 9.95618 12.9117C9.11241 12.9271 7.81467 12.9271 6.05692 12.9116C5.60821 12.9007 5.20157 12.8101 4.83986 12.6406C4.94139 12.4212 4.99825 12.1755 4.99825 11.916V6.54C4.99825 6.14534 4.86669 5.78247 4.64647 5.49575Z" fill="#1565D8"/>
<path opacity="0.3" fill-rule="evenodd" clip-rule="evenodd" d="M2.72448 5.53198C2.18629 5.53198 1.75001 5.98328 1.75001 6.53998V11.916C1.75001 12.4727 2.18629 12.924 2.72448 12.924H3.37413C3.91232 12.924 4.3486 12.4727 4.3486 11.916V6.53998C4.3486 5.98328 3.91232 5.53198 3.37413 5.53198H2.72448Z" fill="#1565D8"/>
</svg>
