<svg width="14" height="14" viewBox="0 0 14 14" fill="none" xmlns="http://www.w3.org/2000/svg">
<path fill-rule="evenodd" clip-rule="evenodd" d="M12.1351 2.95676L7.0951 1.13676C7.03364 1.11457 6.96636 1.11457 6.9049 1.13676L1.8649 2.95676C1.75394 2.99683 1.68 3.10215 1.68 3.22012V7.00012C1.68 9.96844 3.45275 11.9382 6.92743 12.8706C6.9756 12.8835 7.02634 12.8833 7.07441 12.87C10.5479 11.9125 12.32 9.94357 12.32 7.00012V3.22012C12.32 3.10215 12.2461 2.99683 12.1351 2.95676ZM5.06699 6.51034C5.17901 6.40374 5.35624 6.40814 5.46284 6.52016L6.59554 7.71053L8.97413 5.13033C9.07895 5.01664 9.25609 5.00943 9.36978 5.11425C9.48348 5.21906 9.49068 5.3962 9.38587 5.5099L6.80465 8.3099C6.69495 8.4289 6.5075 8.43038 6.39593 8.31313L5.05716 6.9062C4.95056 6.79417 4.95496 6.61694 5.06699 6.51034Z" fill="#1565D8"/>
</svg>
